<?xml version="1.0" encoding="utf-8" ?>
<svg xmlns="http://www.w3.org/2000/svg" xmlns:xlink="http://www.w3.org/1999/xlink" width="1494" height="1455" viewBox="0 0 1494 1455">
<clipPath id="cl_4">
<rect width="1494" height="1455"/>
</clipPath>
<g clip-path="url(#cl_4)">
<path fill="#DCB263" transform="translate(-255 -255)" d="M999.127 258.54C1002.33 262.547 1013.25 307.239 1015.34 314.777C1027.49 357.868 1039.26 401.066 1050.64 444.365C1076.04 538.924 1103.77 636.44 1127.71 731.042C1139.68 724.842 1155.26 714.579 1166.96 707.221C1188.32 693.686 1209.76 680.27 1231.27 666.976L1328.47 606.513C1374.72 578.191 1420.77 549.554 1466.62 520.605C1456.93 536.171 1445.9 552.011 1435.92 567.725L1248.14 860.66C1282.07 867.615 1324.48 879.808 1358.89 888.617L1573.15 943.969L1682.45 971.998C1697.81 975.899 1731.71 983.869 1745.34 989.301C1697.62 998.402 1639.46 1015.56 1591.74 1027.9L1368.23 1084.39C1329.39 1094.05 1290 1104.64 1250.99 1113.3C1260.28 1126.92 1269.62 1140.86 1278.39 1154.82C1341.99 1256.02 1409.01 1355.44 1472.74 1456.49C1455.62 1444.41 1434.61 1431.44 1416.83 1420.06L1318.85 1357.41L1187.76 1272.49C1167.25 1259.13 1146.55 1244.87 1125.84 1231.97C1123.62 1244.81 1115.78 1271.46 1112.23 1284.81L1086.38 1382.69C1059.13 1489.69 1031.23 1596.51 1002.67 1703.17C1001.88 1706.05 1001.72 1707.5 999.792 1709.75L998.39 1709.19L997.01 1704.11C993.784 1686.76 987.251 1665.34 982.609 1647.94L958.216 1556.11C929.937 1450.23 899.791 1341.01 873.334 1234.89C849.292 1248.48 813.761 1273.22 789.61 1288.83L617.928 1399.39C589.615 1417.63 554.38 1441.83 525.868 1458.43C540.777 1436.96 557.675 1409.38 572.234 1387.05L684.831 1213.81C707.005 1179.67 729.955 1143.09 753.143 1109.92L417.175 1026.39L313.804 1000.62C296.233 996.282 274.746 990.482 257.192 987.507C306.187 972.781 366.445 959.302 416.979 946.296L750.259 860.691C727.768 828.788 705.163 793.033 683.709 760.145L582.255 604.308C564.006 576.153 543.441 542.138 524.22 515.301C532.071 518.301 549.015 529.266 556.677 534.034L609.17 566.683L783.229 673.692C809.387 689.677 845.54 713.371 872.232 727.429C884.026 675.088 901.908 613.64 916.171 561.141C943.289 460.128 970.942 359.26 999.127 258.54ZM1010.32 1072.86C1060.16 1067.39 1096.17 1022.62 1090.84 972.774C1085.51 922.925 1040.85 886.785 990.987 891.968C940.917 897.173 904.596 942.055 909.946 992.109C915.296 1042.16 960.283 1078.35 1010.32 1072.86Z"/>
</g>
</svg>
